# xmcd
#
# Track frame offsets:
#	150
#	13844
#	27810
#	46010
#	65247
#	82648
#	102995
#	119450
#	135355
#	150427
#
# Disc length: 2197 seconds
#
# Revision: 0
# Processed by: cddbd v1.5.2PL0 Copyright (c) Steve Scherf et al.
# Submitted via: EasyCDDAExtractor 15.3.0.1
#
DISCID=7008930a
DTITLE=화요비 - Hwayobi
DYEAR=2010
DGENRE=R&B
TTITLE0=Booty Call
TTITLE1=Bye Bye Bye
TTITLE2=Ssso What (Feat. Beenzino)
TTITLE3=Baby Gone Baby Gone (Feat. 아웃사이더)
TTITLE4=2CreAm NoSuGar
TTITLE5=가끔은.. 남자도..
TTITLE6=More Than Love
TTITLE7=iLuvMe
TTITLE8=Zero
TTITLE9=Cloud 9
EXTD=
EXTT0=
EXTT1=
EXTT2=
EXTT3=
EXTT4=
EXTT5=
EXTT6=
EXTT7=
EXTT8=
EXTT9=
PLAYORDER=
